<svg width="14" height="12" viewBox="0 0 14 12" fill="none" xmlns="http://www.w3.org/2000/svg">
<path fill-rule="evenodd" clip-rule="evenodd" d="M3.18889 2.22222C2.28682 2.22222 1.55556 2.79679 1.55556 3.50556V9.49444C1.55556 10.2032 2.28682 10.7778 3.18889 10.7778H10.8111C11.7132 10.7778 12.4444 10.2032 12.4444 9.49444V5.1925C12.4444 4.855 12.7927 4.58139 13.2222 4.58139C13.6518 4.58139 14 4.855 14 5.1925V9.49444C14 10.8782 12.5723 12 10.8111 12H3.18889C1.42772 12 0 10.8782 0 9.49444V3.50556C0 2.12178 1.42772 1 3.18889 1H8.66409C9.09364 1 9.44187 1.27361 9.44187 1.61111C9.44187 1.94862 9.09364 2.22222 8.66409 2.22222H3.18889Z" fill="black"/>
<path fill-rule="evenodd" clip-rule="evenodd" d="M10.3359 1.24911C10.3359 1.11153 10.4851 1 10.6691 1H13.5383L13.5455 1.00023C13.7911 1.0082 13.9879 1.15479 13.9997 1.33832L14 1.34423V3.46573C14 3.60331 13.8509 3.71484 13.6668 3.71484C13.4828 3.71484 13.3336 3.60331 13.3336 3.46573V1.85997L10.5688 3.92704C10.4387 4.02432 10.2277 4.02432 10.0976 3.92704C9.96747 3.82976 9.96747 3.67203 10.0976 3.57474L12.8751 1.49822H10.6691C10.4851 1.49822 10.3359 1.38669 10.3359 1.24911Z" fill="black"/>
</svg>
